<svg
                    xmlns="http://www.w3.org/2000/svg"
                    viewBox="0 0 1440 320"
                  >
                    <path
                      fill="#0a314b"
                      fill-opacity="1"
                      d="M0,96L48,80C96,64,192,32,288,48C384,64,480,128,576,154.7C672,181,768,171,864,144C960,117,1056,75,1152,58.7C1248,43,1344,53,1392,58.7L1440,64L1440,320L1392,320C1344,320,1248,320,1152,320C1056,320,960,320,864,320C768,320,672,320,576,320C480,320,384,320,288,320C192,320,96,320,48,320L0,320Z"
                    ></path>
                  </svg>